<?xml version="1.0" encoding="UTF-8"?>
<!DOCTYPE svg PUBLIC "-//W3C//DTD SVG 1.1//EN" "http://www.w3.org/Graphics/SVG/1.1/DTD/svg11.dtd">
<svg width="563mm" height="301mm" viewBox="0 0 56300 30100" version="1.1" xmlns="http://www.w3.org/2000/svg" xmlns:xlink="http://www.w3.org/1999/xlink" stroke-width="28.222" stroke-linejoin="round" xml:space="preserve">
 <path fill="rgb(238,238,238)" stroke="none" d="M 28141,30037 L -13,30037 -13,-13 56295,-13 56295,30037 28141,30037 Z"/>
 <path fill="none" stroke="rgb(179,179,179)" stroke-linejoin="round" d="M 27248,27990 L 4364,27990 4364,6760 50132,6760 50132,27990 27248,27990 Z"/>
 <path fill="none" stroke="rgb(179,179,179)" stroke-linejoin="round" d="M 4364,6759 L 4364,27989"/>
 <path fill="none" stroke="rgb(179,179,179)" stroke-linejoin="round" d="M 5998,6759 L 5998,27989"/>
 <path fill="none" stroke="rgb(179,179,179)" stroke-linejoin="round" d="M 7633,6759 L 7633,27989"/>
 <path fill="none" stroke="rgb(179,179,179)" stroke-linejoin="round" d="M 9267,6759 L 9267,27989"/>
 <path fill="none" stroke="rgb(179,179,179)" stroke-linejoin="round" d="M 10902,6759 L 10902,27989"/>
 <path fill="none" stroke="rgb(179,179,179)" stroke-linejoin="round" d="M 12537,6759 L 12537,27989"/>
 <path fill="none" stroke="rgb(179,179,179)" stroke-linejoin="round" d="M 14171,6759 L 14171,27989"/>
 <path fill="none" stroke="rgb(179,179,179)" stroke-linejoin="round" d="M 15806,6759 L 15806,27989"/>
 <path fill="none" stroke="rgb(179,179,179)" stroke-linejoin="round" d="M 17440,6759 L 17440,27989"/>
 <path fill="none" stroke="rgb(179,179,179)" stroke-linejoin="round" d="M 19075,6759 L 19075,27989"/>
 <path fill="none" stroke="rgb(179,179,179)" stroke-linejoin="round" d="M 20710,6759 L 20710,27989"/>
 <path fill="none" stroke="rgb(179,179,179)" stroke-linejoin="round" d="M 22344,6759 L 22344,27989"/>
 <path fill="none" stroke="rgb(179,179,179)" stroke-linejoin="round" d="M 23979,6759 L 23979,27989"/>
 <path fill="none" stroke="rgb(179,179,179)" stroke-linejoin="round" d="M 25613,6759 L 25613,27989"/>
 <path fill="none" stroke="rgb(179,179,179)" stroke-linejoin="round" d="M 27248,6759 L 27248,27989"/>
 <path fill="none" stroke="rgb(179,179,179)" stroke-linejoin="round" d="M 28882,6759 L 28882,27989"/>
 <path fill="none" stroke="rgb(179,179,179)" stroke-linejoin="round" d="M 30516,6759 L 30516,27989"/>
 <path fill="none" stroke="rgb(179,179,179)" stroke-linejoin="round" d="M 32151,6759 L 32151,27989"/>
 <path fill="none" stroke="rgb(179,179,179)" stroke-linejoin="round" d="M 33785,6759 L 33785,27989"/>
 <path fill="none" stroke="rgb(179,179,179)" stroke-linejoin="round" d="M 35420,6759 L 35420,27989"/>
 <path fill="none" stroke="rgb(179,179,179)" stroke-linejoin="round" d="M 37055,6759 L 37055,27989"/>
 <path fill="none" stroke="rgb(179,179,179)" stroke-linejoin="round" d="M 38689,6759 L 38689,27989"/>
 <path fill="none" stroke="rgb(179,179,179)" stroke-linejoin="round" d="M 40324,6759 L 40324,27989"/>
 <path fill="none" stroke="rgb(179,179,179)" stroke-linejoin="round" d="M 41958,6759 L 41958,27989"/>
 <path fill="none" stroke="rgb(179,179,179)" stroke-linejoin="round" d="M 43593,6759 L 43593,27989"/>
 <path fill="none" stroke="rgb(179,179,179)" stroke-linejoin="round" d="M 45228,6759 L 45228,27989"/>
 <path fill="none" stroke="rgb(179,179,179)" stroke-linejoin="round" d="M 46862,6759 L 46862,27989"/>
 <path fill="none" stroke="rgb(179,179,179)" stroke-linejoin="round" d="M 48497,6759 L 48497,27989"/>
 <path fill="none" stroke="rgb(179,179,179)" stroke-linejoin="round" d="M 50132,6759 L 50132,27989"/>
 <path fill="none" stroke="rgb(179,179,179)" stroke-linejoin="round" d="M 50132,27989 L 4364,27989"/>
 <path fill="none" stroke="rgb(179,179,179)" stroke-linejoin="round" d="M 50132,25865 L 4364,25865"/>
 <path fill="none" stroke="rgb(179,179,179)" stroke-linejoin="round" d="M 50132,23742 L 4364,23742"/>
 <path fill="none" stroke="rgb(179,179,179)" stroke-linejoin="round" d="M 50132,21619 L 4364,21619"/>
 <path fill="none" stroke="rgb(179,179,179)" stroke-linejoin="round" d="M 50132,19496 L 4364,19496"/>
 <path fill="none" stroke="rgb(179,179,179)" stroke-linejoin="round" d="M 50132,17373 L 4364,17373"/>
 <path fill="none" stroke="rgb(179,179,179)" stroke-linejoin="round" d="M 50132,15250 L 4364,15250"/>
 <path fill="none" stroke="rgb(179,179,179)" stroke-linejoin="round" d="M 50132,13128 L 4364,13128"/>
 <path fill="none" stroke="rgb(179,179,179)" stroke-linejoin="round" d="M 50132,11005 L 4364,11005"/>
 <path fill="none" stroke="rgb(179,179,179)" stroke-linejoin="round" d="M 50132,8882 L 4364,8882"/>
 <path fill="none" stroke="rgb(179,179,179)" stroke-linejoin="round" d="M 50132,6759 L 4364,6759"/>
 <path fill="none" stroke="rgb(179,179,179)" stroke-linejoin="round" d="M 4364,6609 L 4364,6759"/>
 <path fill="none" stroke="rgb(179,179,179)" stroke-linejoin="round" d="M 4364,17523 L 4364,17373"/>
 <path fill="none" stroke="rgb(179,179,179)" stroke-linejoin="round" d="M 5998,6609 L 5998,6759"/>
 <path fill="none" stroke="rgb(179,179,179)" stroke-linejoin="round" d="M 5998,17523 L 5998,17373"/>
 <path fill="none" stroke="rgb(179,179,179)" stroke-linejoin="round" d="M 7633,6609 L 7633,6759"/>
 <path fill="none" stroke="rgb(179,179,179)" stroke-linejoin="round" d="M 7633,17523 L 7633,17373"/>
 <path fill="none" stroke="rgb(179,179,179)" stroke-linejoin="round" d="M 9267,6609 L 9267,6759"/>
 <path fill="none" stroke="rgb(179,179,179)" stroke-linejoin="round" d="M 9267,17523 L 9267,17373"/>
 <path fill="none" stroke="rgb(179,179,179)" stroke-linejoin="round" d="M 10902,6609 L 10902,6759"/>
 <path fill="none" stroke="rgb(179,179,179)" stroke-linejoin="round" d="M 10902,17523 L 10902,17373"/>
 <path fill="none" stroke="rgb(179,179,179)" stroke-linejoin="round" d="M 12537,6609 L 12537,6759"/>
 <path fill="none" stroke="rgb(179,179,179)" stroke-linejoin="round" d="M 12537,17523 L 12537,17373"/>
 <path fill="none" stroke="rgb(179,179,179)" stroke-linejoin="round" d="M 14171,6609 L 14171,6759"/>
 <path fill="none" stroke="rgb(179,179,179)" stroke-linejoin="round" d="M 14171,17523 L 14171,17373"/>
 <path fill="none" stroke="rgb(179,179,179)" stroke-linejoin="round" d="M 15806,6609 L 15806,6759"/>
 <path fill="none" stroke="rgb(179,179,179)" stroke-linejoin="round" d="M 15806,17523 L 15806,17373"/>
 <path fill="none" stroke="rgb(179,179,179)" stroke-linejoin="round" d="M 17440,6609 L 17440,6759"/>
 <path fill="none" stroke="rgb(179,179,179)" stroke-linejoin="round" d="M 17440,17523 L 17440,17373"/>
 <path fill="none" stroke="rgb(179,179,179)" stroke-linejoin="round" d="M 19075,6609 L 19075,6759"/>
 <path fill="none" stroke="rgb(179,179,179)" stroke-linejoin="round" d="M 19075,17523 L 19075,17373"/>
 <path fill="none" stroke="rgb(179,179,179)" stroke-linejoin="round" d="M 20710,6609 L 20710,6759"/>
 <path fill="none" stroke="rgb(179,179,179)" stroke-linejoin="round" d="M 20710,17523 L 20710,17373"/>
 <path fill="none" stroke="rgb(179,179,179)" stroke-linejoin="round" d="M 22344,6609 L 22344,6759"/>
 <path fill="none" stroke="rgb(179,179,179)" stroke-linejoin="round" d="M 22344,17523 L 22344,17373"/>
 <path fill="none" stroke="rgb(179,179,179)" stroke-linejoin="round" d="M 23979,6609 L 23979,6759"/>
 <path fill="none" stroke="rgb(179,179,179)" stroke-linejoin="round" d="M 23979,17523 L 23979,17373"/>
 <path fill="none" stroke="rgb(179,179,179)" stroke-linejoin="round" d="M 25613,6609 L 25613,6759"/>
 <path fill="none" stroke="rgb(179,179,179)" stroke-linejoin="round" d="M 25613,17523 L 25613,17373"/>
 <path fill="none" stroke="rgb(179,179,179)" stroke-linejoin="round" d="M 27248,6609 L 27248,6759"/>
 <path fill="none" stroke="rgb(179,179,179)" stroke-linejoin="round" d="M 27248,17523 L 27248,17373"/>
 <path fill="none" stroke="rgb(179,179,179)" stroke-linejoin="round" d="M 28882,6609 L 28882,6759"/>
 <path fill="none" stroke="rgb(179,179,179)" stroke-linejoin="round" d="M 28882,17523 L 28882,17373"/>
 <path fill="none" stroke="rgb(179,179,179)" stroke-linejoin="round" d="M 30516,6609 L 30516,6759"/>
 <path fill="none" stroke="rgb(179,179,179)" stroke-linejoin="round" d="M 30516,17523 L 30516,17373"/>
 <path fill="none" stroke="rgb(179,179,179)" stroke-linejoin="round" d="M 32151,6609 L 32151,6759"/>
 <path fill="none" stroke="rgb(179,179,179)" stroke-linejoin="round" d="M 32151,17523 L 32151,17373"/>
 <path fill="none" stroke="rgb(179,179,179)" stroke-linejoin="round" d="M 33785,6609 L 33785,6759"/>
 <path fill="none" stroke="rgb(179,179,179)" stroke-linejoin="round" d="M 33785,17523 L 33785,17373"/>
 <path fill="none" stroke="rgb(179,179,179)" stroke-linejoin="round" d="M 35420,6609 L 35420,6759"/>
 <path fill="none" stroke="rgb(179,179,179)" stroke-linejoin="round" d="M 35420,17523 L 35420,17373"/>
 <path fill="none" stroke="rgb(179,179,179)" stroke-linejoin="round" d="M 37055,6609 L 37055,6759"/>
 <path fill="none" stroke="rgb(179,179,179)" stroke-linejoin="round" d="M 37055,17523 L 37055,17373"/>
 <path fill="none" stroke="rgb(179,179,179)" stroke-linejoin="round" d="M 38689,6609 L 38689,6759"/>
 <path fill="none" stroke="rgb(179,179,179)" stroke-linejoin="round" d="M 38689,17523 L 38689,17373"/>
 <path fill="none" stroke="rgb(179,179,179)" stroke-linejoin="round" d="M 40324,6609 L 40324,6759"/>
 <path fill="none" stroke="rgb(179,179,179)" stroke-linejoin="round" d="M 40324,17523 L 40324,17373"/>
 <path fill="none" stroke="rgb(179,179,179)" stroke-linejoin="round" d="M 41958,6609 L 41958,6759"/>
 <path fill="none" stroke="rgb(179,179,179)" stroke-linejoin="round" d="M 41958,17523 L 41958,17373"/>
 <path fill="none" stroke="rgb(179,179,179)" stroke-linejoin="round" d="M 43593,6609 L 43593,6759"/>
 <path fill="none" stroke="rgb(179,179,179)" stroke-linejoin="round" d="M 43593,17523 L 43593,17373"/>
 <path fill="none" stroke="rgb(179,179,179)" stroke-linejoin="round" d="M 45228,6609 L 45228,6759"/>
 <path fill="none" stroke="rgb(179,179,179)" stroke-linejoin="round" d="M 45228,17523 L 45228,17373"/>
 <path fill="none" stroke="rgb(179,179,179)" stroke-linejoin="round" d="M 46862,6609 L 46862,6759"/>
 <path fill="none" stroke="rgb(179,179,179)" stroke-linejoin="round" d="M 46862,17523 L 46862,17373"/>
 <path fill="none" stroke="rgb(179,179,179)" stroke-linejoin="round" d="M 48497,6609 L 48497,6759"/>
 <path fill="none" stroke="rgb(179,179,179)" stroke-linejoin="round" d="M 48497,17523 L 48497,17373"/>
 <path fill="none" stroke="rgb(179,179,179)" stroke-linejoin="round" d="M 50132,6609 L 50132,6759"/>
 <path fill="none" stroke="rgb(179,179,179)" stroke-linejoin="round" d="M 50132,17523 L 50132,17373"/>
 <path fill="none" stroke="rgb(179,179,179)" stroke-linejoin="round" d="M 4364,17373 L 50132,17373"/>
 <path fill="none" stroke="rgb(179,179,179)" stroke-linejoin="round" d="M 4214,27989 L 4364,27989"/>
 <path fill="none" stroke="rgb(179,179,179)" stroke-linejoin="round" d="M 4214,27989 L 4364,27989"/>
 <path fill="none" stroke="rgb(179,179,179)" stroke-linejoin="round" d="M 4214,25865 L 4364,25865"/>
 <path fill="none" stroke="rgb(179,179,179)" stroke-linejoin="round" d="M 4214,25865 L 4364,25865"/>
 <path fill="none" stroke="rgb(179,179,179)" stroke-linejoin="round" d="M 4214,23742 L 4364,23742"/>
 <path fill="none" stroke="rgb(179,179,179)" stroke-linejoin="round" d="M 4214,23742 L 4364,23742"/>
 <path fill="none" stroke="rgb(179,179,179)" stroke-linejoin="round" d="M 4214,21619 L 4364,21619"/>
 <path fill="none" stroke="rgb(179,179,179)" stroke-linejoin="round" d="M 4214,21619 L 4364,21619"/>
 <path fill="none" stroke="rgb(179,179,179)" stroke-linejoin="round" d="M 4214,19496 L 4364,19496"/>
 <path fill="none" stroke="rgb(179,179,179)" stroke-linejoin="round" d="M 4214,19496 L 4364,19496"/>
 <path fill="none" stroke="rgb(179,179,179)" stroke-linejoin="round" d="M 4214,17373 L 4364,17373"/>
 <path fill="none" stroke="rgb(179,179,179)" stroke-linejoin="round" d="M 4214,17373 L 4364,17373"/>
 <path fill="none" stroke="rgb(179,179,179)" stroke-linejoin="round" d="M 4214,15250 L 4364,15250"/>
 <path fill="none" stroke="rgb(179,179,179)" stroke-linejoin="round" d="M 4214,15250 L 4364,15250"/>
 <path fill="none" stroke="rgb(179,179,179)" stroke-linejoin="round" d="M 4214,13128 L 4364,13128"/>
 <path fill="none" stroke="rgb(179,179,179)" stroke-linejoin="round" d="M 4214,13128 L 4364,13128"/>
 <path fill="none" stroke="rgb(179,179,179)" stroke-linejoin="round" d="M 4214,11005 L 4364,11005"/>
 <path fill="none" stroke="rgb(179,179,179)" stroke-linejoin="round" d="M 4214,11005 L 4364,11005"/>
 <path fill="none" stroke="rgb(179,179,179)" stroke-linejoin="round" d="M 4214,8882 L 4364,8882"/>
 <path fill="none" stroke="rgb(179,179,179)" stroke-linejoin="round" d="M 4214,8882 L 4364,8882"/>
 <path fill="none" stroke="rgb(179,179,179)" stroke-linejoin="round" d="M 4214,6759 L 4364,6759"/>
 <path fill="none" stroke="rgb(179,179,179)" stroke-linejoin="round" d="M 4214,6759 L 4364,6759"/>
 <path fill="none" stroke="rgb(179,179,179)" stroke-linejoin="round" d="M 4364,27989 L 4364,6759"/>
 <path fill="rgb(0,69,134)" stroke="none" d="M 4527,17373 L 4854,17373 4854,10180 4527,10180 4527,17373 Z"/>
 <path fill="rgb(0,69,134)" stroke="none" d="M 6162,24567 L 6488,24567 6488,17373 6162,17373 6162,24567 Z"/>
 <path fill="rgb(0,69,134)" stroke="none" d="M 7796,17373 L 8123,17373 8123,10108 7796,10108 7796,17373 Z"/>
 <path fill="rgb(0,69,134)" stroke="none" d="M 9431,24639 L 9758,24639 9758,17373 9431,17373 9431,24639 Z"/>
 <path fill="rgb(0,69,134)" stroke="none" d="M 11065,17373 L 11392,17373 11392,9999 11065,9999 11065,17373 Z"/>
 <path fill="rgb(0,69,134)" stroke="none" d="M 12700,24748 L 13027,24748 13027,17373 12700,17373 12700,24748 Z"/>
 <path fill="rgb(0,69,134)" stroke="none" d="M 14335,17373 L 14662,17373 14662,15425 14335,15425 14335,17373 Z"/>
 <path fill="rgb(0,69,134)" stroke="none" d="M 15969,19321 L 16296,19321 16296,17373 15969,17373 15969,19321 Z"/>
 <path fill="rgb(0,69,134)" stroke="none" d="M 17604,17373 L 17931,17373 17931,15350 17604,15350 17604,17373 Z"/>
 <path fill="rgb(0,69,134)" stroke="none" d="M 19238,19396 L 19565,19396 19565,17373 19238,17373 19238,19396 Z"/>
 <path fill="rgb(0,69,134)" stroke="none" d="M 20873,17373 L 21200,17373 21200,15496 20873,15496 20873,17373 Z"/>
 <path fill="rgb(0,69,134)" stroke="none" d="M 22508,19250 L 22835,19250 22835,17373 22508,17373 22508,19250 Z"/>
 <path fill="rgb(0,69,134)" stroke="none" d="M 24142,17373 L 24469,17373 24469,15218 24142,15218 24142,17373 Z"/>
 <path fill="rgb(0,69,134)" stroke="none" d="M 25777,19528 L 26104,19528 26104,17373 25777,17373 25777,19528 Z"/>
 <path fill="rgb(0,69,134)" stroke="none" d="M 27411,17373 L 27738,17373 27738,17373 27411,17373 Z"/>
 <path fill="rgb(0,69,134)" stroke="none" d="M 29045,17373 L 29372,17373 29372,17373 29045,17373 Z"/>
 <path fill="rgb(0,69,134)" stroke="none" d="M 30680,17373 L 31007,17373 31007,15246 30680,15246 30680,17373 Z"/>
 <path fill="rgb(0,69,134)" stroke="none" d="M 32314,19500 L 32641,19500 32641,17373 32314,17373 32314,19500 Z"/>
 <path fill="rgb(0,69,134)" stroke="none" d="M 33949,18414 L 34276,18414 34276,17373 33949,17373 33949,18414 Z"/>
 <path fill="rgb(0,69,134)" stroke="none" d="M 35583,17373 L 35910,17373 35910,16332 35583,16332 35583,17373 Z"/>
 <path fill="rgb(0,69,134)" stroke="none" d="M 37218,17373 L 37545,17373 37545,15613 37218,15613 37218,17373 Z"/>
 <path fill="rgb(0,69,134)" stroke="none" d="M 38853,19133 L 39180,19133 39180,17373 38853,17373 38853,19133 Z"/>
 <path fill="rgb(0,69,134)" stroke="none" d="M 40487,17373 L 40814,17373 40814,16065 40487,16065 40487,17373 Z"/>
 <path fill="rgb(0,69,134)" stroke="none" d="M 42122,18681 L 42449,18681 42449,17373 42122,17373 42122,18681 Z"/>
 <path fill="rgb(0,69,134)" stroke="none" d="M 43757,17373 L 44083,17373 44083,15580 43757,15580 43757,17373 Z"/>
 <path fill="rgb(0,69,134)" stroke="none" d="M 45391,19166 L 45718,19166 45718,17373 45391,17373 45391,19166 Z"/>
 <path fill="rgb(0,69,134)" stroke="none" d="M 47026,17373 L 47353,17373 47353,15567 47026,15567 47026,17373 Z"/>
 <path fill="rgb(0,69,134)" stroke="none" d="M 48660,19179 L 48987,19179 48987,17373 48660,17373 48660,19179 Z"/>
 <path fill="rgb(255,66,14)" stroke="none" d="M 4854,17373 L 5181,17373 5181,8816 4854,8816 4854,17373 Z"/>
 <path fill="rgb(255,66,14)" stroke="none" d="M 6488,25931 L 6815,25931 6815,17373 6488,17373 6488,25931 Z"/>
 <path fill="rgb(255,66,14)" stroke="none" d="M 8123,17373 L 8450,17373 8450,8742 8123,8742 8123,17373 Z"/>
 <path fill="rgb(255,66,14)" stroke="none" d="M 9758,26005 L 10085,26005 10085,17373 9758,17373 9758,26005 Z"/>
 <path fill="rgb(255,66,14)" stroke="none" d="M 11392,17373 L 11719,17373 11719,8632 11392,8632 11392,17373 Z"/>
 <path fill="rgb(255,66,14)" stroke="none" d="M 13027,26115 L 13354,26115 13354,17373 13027,17373 13027,26115 Z"/>
 <path fill="rgb(255,66,14)" stroke="none" d="M 14662,17373 L 14988,17373 14988,15289 14662,15289 14662,17373 Z"/>
 <path fill="rgb(255,66,14)" stroke="none" d="M 16296,19457 L 16623,19457 16623,17373 16296,17373 16296,19457 Z"/>
 <path fill="rgb(255,66,14)" stroke="none" d="M 17931,17373 L 18258,17373 18258,15253 17931,15253 17931,17373 Z"/>
 <path fill="rgb(255,66,14)" stroke="none" d="M 19565,19493 L 19892,19493 19892,17373 19565,17373 19565,19493 Z"/>
 <path fill="rgb(255,66,14)" stroke="none" d="M 21200,17373 L 21527,17373 21527,15247 21200,15247 21200,17373 Z"/>
 <path fill="rgb(255,66,14)" stroke="none" d="M 22835,19499 L 23161,19499 23161,17373 22835,17373 22835,19499 Z"/>
 <path fill="rgb(255,66,14)" stroke="none" d="M 24469,17373 L 24796,17373 24796,14802 24469,14802 24469,17373 Z"/>
 <path fill="rgb(255,66,14)" stroke="none" d="M 26104,19945 L 26431,19945 26431,17373 26104,17373 26104,19945 Z"/>
 <path fill="rgb(255,66,14)" stroke="none" d="M 27738,17373 L 28065,17373 28065,14741 27738,14741 27738,17373 Z"/>
 <path fill="rgb(255,66,14)" stroke="none" d="M 29372,20006 L 29699,20006 29699,17373 29372,17373 29372,20006 Z"/>
 <path fill="rgb(255,66,14)" stroke="none" d="M 31007,17373 L 31334,17373 31334,14754 31007,14754 31007,17373 Z"/>
 <path fill="rgb(255,66,14)" stroke="none" d="M 32641,19993 L 32968,19993 32968,17373 32641,17373 32641,19993 Z"/>
 <path fill="rgb(255,66,14)" stroke="none" d="M 34276,18346 L 34603,18346 34603,17373 34276,17373 34276,18346 Z"/>
 <path fill="rgb(255,66,14)" stroke="none" d="M 35910,17373 L 36237,17373 36237,16400 35910,16400 35910,17373 Z"/>
 <path fill="rgb(255,66,14)" stroke="none" d="M 37545,17373 L 37872,17373 37872,15592 37545,15592 37545,17373 Z"/>
 <path fill="rgb(255,66,14)" stroke="none" d="M 39180,19154 L 39507,19154 39507,17373 39180,17373 39180,19154 Z"/>
 <path fill="rgb(255,66,14)" stroke="none" d="M 40814,17373 L 41141,17373 41141,16092 40814,16092 40814,17373 Z"/>
 <path fill="rgb(255,66,14)" stroke="none" d="M 42449,18654 L 42776,18654 42776,17373 42449,17373 42449,18654 Z"/>
 <path fill="rgb(255,66,14)" stroke="none" d="M 44083,17373 L 44410,17373 44410,15386 44083,15386 44083,17373 Z"/>
 <path fill="rgb(255,66,14)" stroke="none" d="M 45718,19360 L 46045,19360 46045,17373 45718,17373 45718,19360 Z"/>
 <path fill="rgb(255,66,14)" stroke="none" d="M 47353,17373 L 47680,17373 47680,15384 47353,15384 47353,17373 Z"/>
 <path fill="rgb(255,66,14)" stroke="none" d="M 48987,19362 L 49314,19362 49314,17373 48987,17373 48987,19362 Z"/>
 <path fill="rgb(255,211,32)" stroke="none" d="M 5181,17373 L 5508,17373 5508,8543 5181,8543 5181,17373 Z"/>
 <path fill="rgb(255,211,32)" stroke="none" d="M 6815,26204 L 7142,26204 7142,17373 6815,17373 6815,26204 Z"/>
 <path fill="rgb(255,211,32)" stroke="none" d="M 8450,17373 L 8777,17373 8777,8485 8450,8485 8450,17373 Z"/>
 <path fill="rgb(255,211,32)" stroke="none" d="M 10085,26262 L 10412,26262 10412,17373 10085,17373 10085,26262 Z"/>
 <path fill="rgb(255,211,32)" stroke="none" d="M 11719,17373 L 12046,17373 12046,8352 11719,8352 11719,17373 Z"/>
 <path fill="rgb(255,211,32)" stroke="none" d="M 13354,26395 L 13681,26395 13681,17373 13354,17373 13354,26395 Z"/>
 <path fill="rgb(255,211,32)" stroke="none" d="M 14988,17373 L 15315,17373 15315,14677 14988,14677 14988,17373 Z"/>
 <path fill="rgb(255,211,32)" stroke="none" d="M 16623,20070 L 16950,20070 16950,17373 16623,17373 16623,20070 Z"/>
 <path fill="rgb(255,211,32)" stroke="none" d="M 18258,17373 L 18585,17373 18585,14604 18258,14604 18258,17373 Z"/>
 <path fill="rgb(255,211,32)" stroke="none" d="M 19892,20143 L 20219,20143 20219,17373 19892,17373 19892,20143 Z"/>
 <path fill="rgb(255,211,32)" stroke="none" d="M 21527,17373 L 21854,17373 21854,14498 21527,14498 21527,17373 Z"/>
 <path fill="rgb(255,211,32)" stroke="none" d="M 23161,20249 L 23488,20249 23488,17373 23161,17373 23161,20249 Z"/>
 <path fill="rgb(255,211,32)" stroke="none" d="M 24796,17373 L 25123,17373 25123,13364 24796,13364 24796,17373 Z"/>
 <path fill="rgb(255,211,32)" stroke="none" d="M 26431,21383 L 26758,21383 26758,17373 26431,17373 26431,21383 Z"/>
 <path fill="rgb(255,211,32)" stroke="none" d="M 28065,17373 L 28391,17373 28391,13255 28065,13255 28065,17373 Z"/>
 <path fill="rgb(255,211,32)" stroke="none" d="M 29699,21492 L 30026,21492 30026,17373 29699,17373 29699,21492 Z"/>
 <path fill="rgb(255,211,32)" stroke="none" d="M 31334,17373 L 31660,17373 31660,13246 31334,13246 31334,17373 Z"/>
 <path fill="rgb(255,211,32)" stroke="none" d="M 32968,21501 L 33295,21501 33295,17373 32968,17373 32968,21501 Z"/>
 <path fill="rgb(255,211,32)" stroke="none" d="M 34603,17969 L 34930,17969 34930,17373 34603,17373 34603,17969 Z"/>
 <path fill="rgb(255,211,32)" stroke="none" d="M 36237,17373 L 36564,17373 36564,16777 36237,16777 36237,17373 Z"/>
 <path fill="rgb(255,211,32)" stroke="none" d="M 37872,17373 L 38199,17373 38199,15524 37872,15524 37872,17373 Z"/>
 <path fill="rgb(255,211,32)" stroke="none" d="M 39507,19222 L 39833,19222 39833,17373 39507,17373 39507,19222 Z"/>
 <path fill="rgb(255,211,32)" stroke="none" d="M 41141,17373 L 41468,17373 41468,15955 41141,15955 41141,17373 Z"/>
 <path fill="rgb(255,211,32)" stroke="none" d="M 42776,18791 L 43103,18791 43103,17373 42776,17373 42776,18791 Z"/>
 <path fill="rgb(255,211,32)" stroke="none" d="M 44410,17373 L 44737,17373 44737,14946 44410,14946 44410,17373 Z"/>
 <path fill="rgb(255,211,32)" stroke="none" d="M 46045,19801 L 46372,19801 46372,17373 46045,17373 46045,19801 Z"/>
 <path fill="rgb(255,211,32)" stroke="none" d="M 47680,17373 L 48007,17373 48007,14939 47680,14939 47680,17373 Z"/>
 <path fill="rgb(255,211,32)" stroke="none" d="M 49314,19808 L 49641,19808 49641,17373 49314,17373 49314,19808 Z"/>
 <path fill="rgb(87,157,28)" stroke="none" d="M 5508,17373 L 5835,17373 5835,11424 5508,11424 5508,17373 Z"/>
 <path fill="rgb(87,157,28)" stroke="none" d="M 7142,23323 L 7469,23323 7469,17373 7142,17373 7142,23323 Z"/>
 <path fill="rgb(87,157,28)" stroke="none" d="M 8777,17373 L 9104,17373 9104,11368 8777,11368 8777,17373 Z"/>
 <path fill="rgb(87,157,28)" stroke="none" d="M 10412,23379 L 10738,23379 10738,17373 10412,17373 10412,23379 Z"/>
 <path fill="rgb(87,157,28)" stroke="none" d="M 12046,17373 L 12373,17373 12373,11296 12046,11296 12046,17373 Z"/>
 <path fill="rgb(87,157,28)" stroke="none" d="M 13681,23451 L 14008,23451 14008,17373 13681,17373 13681,23451 Z"/>
 <path fill="rgb(87,157,28)" stroke="none" d="M 15315,17373 L 15642,17373 15642,14857 15315,14857 15315,17373 Z"/>
 <path fill="rgb(87,157,28)" stroke="none" d="M 16950,19890 L 17277,19890 17277,17373 16950,17373 16950,19890 Z"/>
 <path fill="rgb(87,157,28)" stroke="none" d="M 18585,17373 L 18912,17373 18912,14787 18585,14787 18585,17373 Z"/>
 <path fill="rgb(87,157,28)" stroke="none" d="M 20219,19960 L 20546,19960 20546,17373 20219,17373 20219,19960 Z"/>
 <path fill="rgb(87,157,28)" stroke="none" d="M 21854,17373 L 22181,17373 22181,14669 21854,14669 21854,17373 Z"/>
 <path fill="rgb(87,157,28)" stroke="none" d="M 23488,20078 L 23815,20078 23815,17373 23488,17373 23488,20078 Z"/>
 <path fill="rgb(87,157,28)" stroke="none" d="M 25123,17373 L 25450,17373 25450,13712 25123,13712 25123,17373 Z"/>
 <path fill="rgb(87,157,28)" stroke="none" d="M 26758,21035 L 27085,21035 27085,17373 26758,17373 26758,21035 Z"/>
 <path fill="rgb(87,157,28)" stroke="none" d="M 28391,17373 L 28718,17373 28718,13676 28391,13676 28391,17373 Z"/>
 <path fill="rgb(87,157,28)" stroke="none" d="M 30026,21071 L 30353,21071 30353,17373 30026,17373 30026,21071 Z"/>
 <path fill="rgb(87,157,28)" stroke="none" d="M 31660,17373 L 31987,17373 31987,13634 31660,13634 31660,17373 Z"/>
 <path fill="rgb(87,157,28)" stroke="none" d="M 33295,21113 L 33622,21113 33622,17373 33295,17373 33295,21113 Z"/>
 <path fill="rgb(87,157,28)" stroke="none" d="M 34930,17647 L 35257,17647 35257,17373 34930,17373 34930,17647 Z"/>
 <path fill="rgb(87,157,28)" stroke="none" d="M 36564,17373 L 36891,17373 36891,17099 36564,17099 36564,17373 Z"/>
 <path fill="rgb(87,157,28)" stroke="none" d="M 38199,17373 L 38526,17373 38526,15805 38199,15805 38199,17373 Z"/>
 <path fill="rgb(87,157,28)" stroke="none" d="M 39833,18941 L 40160,18941 40160,17373 39833,17373 39833,18941 Z"/>
 <path fill="rgb(87,157,28)" stroke="none" d="M 41468,17373 L 41795,17373 41795,16133 41468,16133 41468,17373 Z"/>
 <path fill="rgb(87,157,28)" stroke="none" d="M 43103,18613 L 43430,18613 43430,17373 43103,17373 43103,18613 Z"/>
 <path fill="rgb(87,157,28)" stroke="none" d="M 44737,17373 L 45064,17373 45064,15166 44737,15166 44737,17373 Z"/>
 <path fill="rgb(87,157,28)" stroke="none" d="M 46372,19580 L 46699,19580 46699,17373 46372,17373 46372,19580 Z"/>
 <path fill="rgb(87,157,28)" stroke="none" d="M 48007,17373 L 48333,17373 48333,15171 48007,15171 48007,17373 Z"/>
 <path fill="rgb(87,157,28)" stroke="none" d="M 49641,19575 L 49968,19575 49968,17373 49641,17373 49641,19575 Z"/>
 <text class="SVGTextShape" transform="rotate(-44.9 5267 6453)"><tspan class="TextParagraph" font-family="Liberation Sans, sans-serif" font-size="353px" font-weight="400"><tspan class="TextPosition" x="5267" y="6453"><tspan fill="rgb(0,0,0)" stroke="none" style="white-space: pre">BME680 – 1 upw</tspan></tspan></tspan></text>
 <text class="SVGTextShape" transform="rotate(-44.9 6901 6452)"><tspan class="TextParagraph" font-family="Liberation Sans, sans-serif" font-size="353px" font-weight="400"><tspan class="TextPosition" x="6901" y="6452"><tspan fill="rgb(0,0,0)" stroke="none" style="white-space: pre">BME680 – 1 downw</tspan></tspan></tspan></text>
 <text class="SVGTextShape" transform="rotate(-44.9 8536 6453)"><tspan class="TextParagraph" font-family="Liberation Sans, sans-serif" font-size="353px" font-weight="400"><tspan class="TextPosition" x="8536" y="6453"><tspan fill="rgb(0,0,0)" stroke="none" style="white-space: pre">BME680 – 2 upw</tspan></tspan></tspan></text>
 <text class="SVGTextShape" transform="rotate(-44.9 10171 6452)"><tspan class="TextParagraph" font-family="Liberation Sans, sans-serif" font-size="353px" font-weight="400"><tspan class="TextPosition" x="10171" y="6452"><tspan fill="rgb(0,0,0)" stroke="none" style="white-space: pre">BME680 – 2 downw</tspan></tspan></tspan></text>
 <text class="SVGTextShape" transform="rotate(-44.9 11805 6453)"><tspan class="TextParagraph" font-family="Liberation Sans, sans-serif" font-size="353px" font-weight="400"><tspan class="TextPosition" x="11805" y="6453"><tspan fill="rgb(0,0,0)" stroke="none" style="white-space: pre">BME680 – 3 upw</tspan></tspan></tspan></text>
 <text class="SVGTextShape" transform="rotate(-44.9 13440 6452)"><tspan class="TextParagraph" font-family="Liberation Sans, sans-serif" font-size="353px" font-weight="400"><tspan class="TextPosition" x="13440" y="6452"><tspan fill="rgb(0,0,0)" stroke="none" style="white-space: pre">BME680 – 3 downw</tspan></tspan></tspan></text>
 <text class="SVGTextShape" transform="rotate(-44.9 15074 6453)"><tspan class="TextParagraph" font-family="Liberation Sans, sans-serif" font-size="353px" font-weight="400"><tspan class="TextPosition" x="15074" y="6453"><tspan fill="rgb(0,0,0)" stroke="none" style="white-space: pre">SHT31 – 1 upw.</tspan></tspan></tspan></text>
 <text class="SVGTextShape" transform="rotate(-44.9 16710 6452)"><tspan class="TextParagraph" font-family="Liberation Sans, sans-serif" font-size="353px" font-weight="400"><tspan class="TextPosition" x="16710" y="6452"><tspan fill="rgb(0,0,0)" stroke="none" style="white-space: pre">SHT31 – 1 downw.</tspan></tspan></tspan></text>
 <text class="SVGTextShape" transform="rotate(-44.9 18344 6453)"><tspan class="TextParagraph" font-family="Liberation Sans, sans-serif" font-size="353px" font-weight="400"><tspan class="TextPosition" x="18344" y="6453"><tspan fill="rgb(0,0,0)" stroke="none" style="white-space: pre">SHT31 – 2 upw.</tspan></tspan></tspan></text>
 <text class="SVGTextShape" transform="rotate(-44.9 19979 6452)"><tspan class="TextParagraph" font-family="Liberation Sans, sans-serif" font-size="353px" font-weight="400"><tspan class="TextPosition" x="19979" y="6452"><tspan fill="rgb(0,0,0)" stroke="none" style="white-space: pre">SHT31 – 2 downw.</tspan></tspan></tspan></text>
 <text class="SVGTextShape" transform="rotate(-44.9 21613 6453)"><tspan class="TextParagraph" font-family="Liberation Sans, sans-serif" font-size="353px" font-weight="400"><tspan class="TextPosition" x="21613" y="6453"><tspan fill="rgb(0,0,0)" stroke="none" style="white-space: pre">SHT31 – 3 upw.</tspan></tspan></tspan></text>
 <text class="SVGTextShape" transform="rotate(-44.9 23247 6452)"><tspan class="TextParagraph" font-family="Liberation Sans, sans-serif" font-size="353px" font-weight="400"><tspan class="TextPosition" x="23247" y="6452"><tspan fill="rgb(0,0,0)" stroke="none" style="white-space: pre">SHT31 – 3downw.</tspan></tspan></tspan></text>
 <text class="SVGTextShape" transform="rotate(-44.9 24881 6452)"><tspan class="TextParagraph" font-family="Liberation Sans, sans-serif" font-size="353px" font-weight="400"><tspan class="TextPosition" x="24881" y="6452"><tspan fill="rgb(0,0,0)" stroke="none" style="white-space: pre">SHT40 – 1  upw.</tspan></tspan></tspan></text>
 <text class="SVGTextShape" transform="rotate(-44.9 26517 6452)"><tspan class="TextParagraph" font-family="Liberation Sans, sans-serif" font-size="353px" font-weight="400"><tspan class="TextPosition" x="26517" y="6452"><tspan fill="rgb(0,0,0)" stroke="none" style="white-space: pre">SHT40 – 1 downw.</tspan></tspan></tspan></text>
 <text class="SVGTextShape" transform="rotate(-44.9 28150 6452)"><tspan class="TextParagraph" font-family="Liberation Sans, sans-serif" font-size="353px" font-weight="400"><tspan class="TextPosition" x="28150" y="6452"><tspan fill="rgb(0,0,0)" stroke="none" style="white-space: pre">SHT40 – 2  upw.</tspan></tspan></tspan></text>
 <text class="SVGTextShape" transform="rotate(-44.9 29786 6452)"><tspan class="TextParagraph" font-family="Liberation Sans, sans-serif" font-size="353px" font-weight="400"><tspan class="TextPosition" x="29786" y="6452"><tspan fill="rgb(0,0,0)" stroke="none" style="white-space: pre">SHT40 – 2 downw.</tspan></tspan></tspan></text>
 <text class="SVGTextShape" transform="rotate(-44.9 31420 6452)"><tspan class="TextParagraph" font-family="Liberation Sans, sans-serif" font-size="353px" font-weight="400"><tspan class="TextPosition" x="31420" y="6452"><tspan fill="rgb(0,0,0)" stroke="none" style="white-space: pre">SHT40 – 3  upw.</tspan></tspan></tspan></text>
 <text class="SVGTextShape" transform="rotate(-44.9 33055 6452)"><tspan class="TextParagraph" font-family="Liberation Sans, sans-serif" font-size="353px" font-weight="400"><tspan class="TextPosition" x="33055" y="6452"><tspan fill="rgb(0,0,0)" stroke="none" style="white-space: pre">SHT40 – 3 downw.</tspan></tspan></tspan></text>
 <text class="SVGTextShape" transform="rotate(-44.9 34689 6453)"><tspan class="TextParagraph" font-family="Liberation Sans, sans-serif" font-size="353px" font-weight="400"><tspan class="TextPosition" x="34689" y="6453"><tspan fill="rgb(0,0,0)" stroke="none" style="white-space: pre">DHT22 – 1 upw.</tspan></tspan></tspan></text>
 <text class="SVGTextShape" transform="rotate(-44.9 36324 6452)"><tspan class="TextParagraph" font-family="Liberation Sans, sans-serif" font-size="353px" font-weight="400"><tspan class="TextPosition" x="36324" y="6452"><tspan fill="rgb(0,0,0)" stroke="none" style="white-space: pre">DHT22 – 1 downw.</tspan></tspan></tspan></text>
 <text class="SVGTextShape" transform="rotate(-44.9 37958 6453)"><tspan class="TextParagraph" font-family="Liberation Sans, sans-serif" font-size="353px" font-weight="400"><tspan class="TextPosition" x="37958" y="6453"><tspan fill="rgb(0,0,0)" stroke="none" style="white-space: pre">DHT22 – 2 upw.</tspan></tspan></tspan></text>
 <text class="SVGTextShape" transform="rotate(-44.9 39594 6452)"><tspan class="TextParagraph" font-family="Liberation Sans, sans-serif" font-size="353px" font-weight="400"><tspan class="TextPosition" x="39594" y="6452"><tspan fill="rgb(0,0,0)" stroke="none" style="white-space: pre">DHT22 – 2 downw.</tspan></tspan></tspan></text>
 <text class="SVGTextShape" transform="rotate(-44.9 41227 6453)"><tspan class="TextParagraph" font-family="Liberation Sans, sans-serif" font-size="353px" font-weight="400"><tspan class="TextPosition" x="41227" y="6453"><tspan fill="rgb(0,0,0)" stroke="none" style="white-space: pre">DHT22 – 3 upw.</tspan></tspan></tspan></text>
 <text class="SVGTextShape" transform="rotate(-44.9 42863 6452)"><tspan class="TextParagraph" font-family="Liberation Sans, sans-serif" font-size="353px" font-weight="400"><tspan class="TextPosition" x="42863" y="6452"><tspan fill="rgb(0,0,0)" stroke="none" style="white-space: pre">DHT22 – 3 downw.</tspan></tspan></tspan></text>
 <text class="SVGTextShape" transform="rotate(-44.9 44495 6452)"><tspan class="TextParagraph" font-family="Liberation Sans, sans-serif" font-size="353px" font-weight="400"><tspan class="TextPosition" x="44495" y="6452"><tspan fill="rgb(0,0,0)" stroke="none" style="white-space: pre">BME280 – 1 upw.</tspan></tspan></tspan></text>
 <text class="SVGTextShape" transform="rotate(-44.9 46131 6452)"><tspan class="TextParagraph" font-family="Liberation Sans, sans-serif" font-size="353px" font-weight="400"><tspan class="TextPosition" x="46131" y="6452"><tspan fill="rgb(0,0,0)" stroke="none" style="white-space: pre">BME280 – 1 downw.</tspan></tspan></tspan></text>
 <text class="SVGTextShape" transform="rotate(-44.9 47765 6452)"><tspan class="TextParagraph" font-family="Liberation Sans, sans-serif" font-size="353px" font-weight="400"><tspan class="TextPosition" x="47765" y="6452"><tspan fill="rgb(0,0,0)" stroke="none" style="white-space: pre">BME280 – 2 upw.</tspan></tspan></tspan></text>
 <text class="SVGTextShape" transform="rotate(-44.9 49400 6452)"><tspan class="TextParagraph" font-family="Liberation Sans, sans-serif" font-size="353px" font-weight="400"><tspan class="TextPosition" x="49400" y="6452"><tspan fill="rgb(0,0,0)" stroke="none" style="white-space: pre">BME280 – 2 downw.</tspan></tspan></tspan></text>
 <text class="SVGTextShape"><tspan class="TextParagraph" font-family="Liberation Sans, sans-serif" font-size="353px" font-weight="400"><tspan class="TextPosition" x="3347" y="28110"><tspan fill="rgb(0,0,0)" stroke="none" style="white-space: pre">-2.50</tspan></tspan></tspan></text>
 <text class="SVGTextShape"><tspan class="TextParagraph" font-family="Liberation Sans, sans-serif" font-size="353px" font-weight="400"><tspan class="TextPosition" x="3347" y="25986"><tspan fill="rgb(0,0,0)" stroke="none" style="white-space: pre">-2.00</tspan></tspan></tspan></text>
 <text class="SVGTextShape"><tspan class="TextParagraph" font-family="Liberation Sans, sans-serif" font-size="353px" font-weight="400"><tspan class="TextPosition" x="3347" y="23863"><tspan fill="rgb(0,0,0)" stroke="none" style="white-space: pre">-1.50</tspan></tspan></tspan></text>
 <text class="SVGTextShape"><tspan class="TextParagraph" font-family="Liberation Sans, sans-serif" font-size="353px" font-weight="400"><tspan class="TextPosition" x="3347" y="21740"><tspan fill="rgb(0,0,0)" stroke="none" style="white-space: pre">-1.00</tspan></tspan></tspan></text>
 <text class="SVGTextShape"><tspan class="TextParagraph" font-family="Liberation Sans, sans-serif" font-size="353px" font-weight="400"><tspan class="TextPosition" x="3347" y="19617"><tspan fill="rgb(0,0,0)" stroke="none" style="white-space: pre">-0.50</tspan></tspan></tspan></text>
 <text class="SVGTextShape"><tspan class="TextParagraph" font-family="Liberation Sans, sans-serif" font-size="353px" font-weight="400"><tspan class="TextPosition" x="3453" y="17494"><tspan fill="rgb(0,0,0)" stroke="none" style="white-space: pre">0.00</tspan></tspan></tspan></text>
 <text class="SVGTextShape"><tspan class="TextParagraph" font-family="Liberation Sans, sans-serif" font-size="353px" font-weight="400"><tspan class="TextPosition" x="3453" y="15371"><tspan fill="rgb(0,0,0)" stroke="none" style="white-space: pre">0.50</tspan></tspan></tspan></text>
 <text class="SVGTextShape"><tspan class="TextParagraph" font-family="Liberation Sans, sans-serif" font-size="353px" font-weight="400"><tspan class="TextPosition" x="3453" y="13248"><tspan fill="rgb(0,0,0)" stroke="none" style="white-space: pre">1.00</tspan></tspan></tspan></text>
 <text class="SVGTextShape"><tspan class="TextParagraph" font-family="Liberation Sans, sans-serif" font-size="353px" font-weight="400"><tspan class="TextPosition" x="3453" y="11125"><tspan fill="rgb(0,0,0)" stroke="none" style="white-space: pre">1.50</tspan></tspan></tspan></text>
 <text class="SVGTextShape"><tspan class="TextParagraph" font-family="Liberation Sans, sans-serif" font-size="353px" font-weight="400"><tspan class="TextPosition" x="3453" y="9002"><tspan fill="rgb(0,0,0)" stroke="none" style="white-space: pre">2.00</tspan></tspan></tspan></text>
 <text class="SVGTextShape"><tspan class="TextParagraph" font-family="Liberation Sans, sans-serif" font-size="353px" font-weight="400"><tspan class="TextPosition" x="3453" y="6879"><tspan fill="rgb(0,0,0)" stroke="none" style="white-space: pre">2.50</tspan></tspan></tspan></text>
 <text class="SVGTextShape"><tspan class="TextParagraph" font-family="Liberation Sans, sans-serif" font-size="706px" font-weight="400"><tspan class="TextPosition" x="26514" y="1570"><tspan fill="rgb(0,0,0)" stroke="none" style="white-space: pre">Hysterese</tspan></tspan></tspan></text>
 <text class="SVGTextShape"><tspan class="TextParagraph" font-family="Liberation Sans, sans-serif" font-size="529px" font-weight="400"><tspan class="TextPosition" x="25138" y="3178"><tspan fill="rgb(0,0,0)" stroke="none" style="white-space: pre">Luftfeuchtigkeitssensoren</tspan></tspan></tspan></text>
 <path fill="rgb(0,69,134)" stroke="none" d="M 51143,14001 L 50984,14001 50984,13684 51301,13684 51301,14001 51143,14001 Z"/>
 <path fill="rgb(255,66,14)" stroke="none" d="M 51143,15411 L 50984,15411 50984,15094 51301,15094 51301,15411 51143,15411 Z"/>
 <path fill="rgb(255,211,32)" stroke="none" d="M 51143,16822 L 50984,16822 50984,16505 51301,16505 51301,16822 51143,16822 Z"/>
 <path fill="rgb(87,157,28)" stroke="none" d="M 51143,18233 L 50984,18233 50984,17916 51301,17916 51301,18233 51143,18233 Z"/>
 <text class="SVGTextShape"><tspan class="TextParagraph" font-family="Liberation Sans, sans-serif" font-size="529px" font-weight="400"><tspan class="TextPosition" x="51417" y="14027"><tspan fill="rgb(0,0,0)" stroke="none" style="white-space: pre">rel. Luftf. 35 %</tspan></tspan></tspan></text>
 <text class="SVGTextShape"><tspan class="TextParagraph" font-family="Liberation Sans, sans-serif" font-size="529px" font-weight="400"><tspan class="TextPosition" x="51417" y="15437"><tspan fill="rgb(0,0,0)" stroke="none" style="white-space: pre">rel. Luftf. 45 %</tspan></tspan></tspan></text>
 <text class="SVGTextShape"><tspan class="TextParagraph" font-family="Liberation Sans, sans-serif" font-size="529px" font-weight="400"><tspan class="TextPosition" x="51417" y="16848"><tspan fill="rgb(0,0,0)" stroke="none" style="white-space: pre">rel. Luftf. 60 %</tspan></tspan></tspan></text>
 <text class="SVGTextShape"><tspan class="TextParagraph" font-family="Liberation Sans, sans-serif" font-size="529px" font-weight="400"><tspan class="TextPosition" x="51417" y="18259"><tspan fill="rgb(0,0,0)" stroke="none" style="white-space: pre">rel. Luftf. 75 %</tspan></tspan></tspan></text>
 <text class="SVGTextShape"><tspan class="TextParagraph" font-family="Liberation Sans, sans-serif" font-size="459px" font-weight="400"><tspan class="TextPosition" x="26575" y="29327"><tspan fill="rgb(0,0,0)" stroke="none" style="white-space: pre">Sensoren</tspan></tspan></tspan></text>
 <text class="SVGTextShape" transform="rotate(-90 1739 23386)"><tspan class="TextParagraph" font-family="Liberation Sans, sans-serif" font-size="459px" font-weight="400"><tspan class="TextPosition" x="1739" y="23386"><tspan fill="rgb(0,0,0)" stroke="none" style="white-space: pre">Abweichung vom Mittelwert der aufsteigenden und absteigenden Kurve in %</tspan></tspan></tspan></text>
</svg>