<?xml version="1.0" encoding="UTF-8"?>
<!DOCTYPE svg PUBLIC "-//W3C//DTD SVG 1.1//EN" "http://www.w3.org/Graphics/SVG/1.1/DTD/svg11.dtd">
<svg width="627mm" height="153mm" viewBox="0 0 62700 15300" version="1.1" xmlns="http://www.w3.org/2000/svg" xmlns:xlink="http://www.w3.org/1999/xlink" stroke-width="28.222" stroke-linejoin="round" xml:space="preserve">
 <path fill="rgb(238,238,238)" stroke="none" d="M 31330,15227 L -13,15227 -13,-13 62673,-13 62673,15227 31330,15227 Z"/>
 <path fill="none" stroke="rgb(179,179,179)" stroke-linejoin="round" d="M 30128,13295 L 3163,13295 3163,2697 57093,2697 57093,13295 30128,13295 Z"/>
 <path fill="none" stroke="rgb(179,179,179)" stroke-linejoin="round" d="M 3163,2695 L 3163,13294"/>
 <path fill="none" stroke="rgb(179,179,179)" stroke-linejoin="round" d="M 6533,2695 L 6533,13294"/>
 <path fill="none" stroke="rgb(179,179,179)" stroke-linejoin="round" d="M 9904,2695 L 9904,13294"/>
 <path fill="none" stroke="rgb(179,179,179)" stroke-linejoin="round" d="M 13275,2695 L 13275,13294"/>
 <path fill="none" stroke="rgb(179,179,179)" stroke-linejoin="round" d="M 16645,2695 L 16645,13294"/>
 <path fill="none" stroke="rgb(179,179,179)" stroke-linejoin="round" d="M 20016,2695 L 20016,13294"/>
 <path fill="none" stroke="rgb(179,179,179)" stroke-linejoin="round" d="M 23387,2695 L 23387,13294"/>
 <path fill="none" stroke="rgb(179,179,179)" stroke-linejoin="round" d="M 26757,2695 L 26757,13294"/>
 <path fill="none" stroke="rgb(179,179,179)" stroke-linejoin="round" d="M 30128,2695 L 30128,13294"/>
 <path fill="none" stroke="rgb(179,179,179)" stroke-linejoin="round" d="M 33498,2695 L 33498,13294"/>
 <path fill="none" stroke="rgb(179,179,179)" stroke-linejoin="round" d="M 36868,2695 L 36868,13294"/>
 <path fill="none" stroke="rgb(179,179,179)" stroke-linejoin="round" d="M 40239,2695 L 40239,13294"/>
 <path fill="none" stroke="rgb(179,179,179)" stroke-linejoin="round" d="M 43610,2695 L 43610,13294"/>
 <path fill="none" stroke="rgb(179,179,179)" stroke-linejoin="round" d="M 46980,2695 L 46980,13294"/>
 <path fill="none" stroke="rgb(179,179,179)" stroke-linejoin="round" d="M 50351,2695 L 50351,13294"/>
 <path fill="none" stroke="rgb(179,179,179)" stroke-linejoin="round" d="M 53722,2695 L 53722,13294"/>
 <path fill="none" stroke="rgb(179,179,179)" stroke-linejoin="round" d="M 57092,2695 L 57092,13294"/>
 <path fill="none" stroke="rgb(179,179,179)" stroke-linejoin="round" d="M 57092,13294 L 3163,13294"/>
 <path fill="none" stroke="rgb(179,179,179)" stroke-linejoin="round" d="M 57092,11527 L 3163,11527"/>
 <path fill="none" stroke="rgb(179,179,179)" stroke-linejoin="round" d="M 57092,9761 L 3163,9761"/>
 <path fill="none" stroke="rgb(179,179,179)" stroke-linejoin="round" d="M 57092,7994 L 3163,7994"/>
 <path fill="none" stroke="rgb(179,179,179)" stroke-linejoin="round" d="M 57092,6228 L 3163,6228"/>
 <path fill="none" stroke="rgb(179,179,179)" stroke-linejoin="round" d="M 57092,4462 L 3163,4462"/>
 <path fill="none" stroke="rgb(179,179,179)" stroke-linejoin="round" d="M 57092,2695 L 3163,2695"/>
 <path fill="none" stroke="rgb(179,179,179)" stroke-linejoin="round" d="M 3163,13444 L 3163,13294"/>
 <path fill="none" stroke="rgb(179,179,179)" stroke-linejoin="round" d="M 3163,13444 L 3163,13294"/>
 <path fill="none" stroke="rgb(179,179,179)" stroke-linejoin="round" d="M 6533,13444 L 6533,13294"/>
 <path fill="none" stroke="rgb(179,179,179)" stroke-linejoin="round" d="M 6533,13444 L 6533,13294"/>
 <path fill="none" stroke="rgb(179,179,179)" stroke-linejoin="round" d="M 9904,13444 L 9904,13294"/>
 <path fill="none" stroke="rgb(179,179,179)" stroke-linejoin="round" d="M 9904,13444 L 9904,13294"/>
 <path fill="none" stroke="rgb(179,179,179)" stroke-linejoin="round" d="M 13275,13444 L 13275,13294"/>
 <path fill="none" stroke="rgb(179,179,179)" stroke-linejoin="round" d="M 13275,13444 L 13275,13294"/>
 <path fill="none" stroke="rgb(179,179,179)" stroke-linejoin="round" d="M 16645,13444 L 16645,13294"/>
 <path fill="none" stroke="rgb(179,179,179)" stroke-linejoin="round" d="M 16645,13444 L 16645,13294"/>
 <path fill="none" stroke="rgb(179,179,179)" stroke-linejoin="round" d="M 20016,13444 L 20016,13294"/>
 <path fill="none" stroke="rgb(179,179,179)" stroke-linejoin="round" d="M 20016,13444 L 20016,13294"/>
 <path fill="none" stroke="rgb(179,179,179)" stroke-linejoin="round" d="M 23387,13444 L 23387,13294"/>
 <path fill="none" stroke="rgb(179,179,179)" stroke-linejoin="round" d="M 23387,13444 L 23387,13294"/>
 <path fill="none" stroke="rgb(179,179,179)" stroke-linejoin="round" d="M 26757,13444 L 26757,13294"/>
 <path fill="none" stroke="rgb(179,179,179)" stroke-linejoin="round" d="M 26757,13444 L 26757,13294"/>
 <path fill="none" stroke="rgb(179,179,179)" stroke-linejoin="round" d="M 30128,13444 L 30128,13294"/>
 <path fill="none" stroke="rgb(179,179,179)" stroke-linejoin="round" d="M 30128,13444 L 30128,13294"/>
 <path fill="none" stroke="rgb(179,179,179)" stroke-linejoin="round" d="M 33498,13444 L 33498,13294"/>
 <path fill="none" stroke="rgb(179,179,179)" stroke-linejoin="round" d="M 33498,13444 L 33498,13294"/>
 <path fill="none" stroke="rgb(179,179,179)" stroke-linejoin="round" d="M 36868,13444 L 36868,13294"/>
 <path fill="none" stroke="rgb(179,179,179)" stroke-linejoin="round" d="M 36868,13444 L 36868,13294"/>
 <path fill="none" stroke="rgb(179,179,179)" stroke-linejoin="round" d="M 40239,13444 L 40239,13294"/>
 <path fill="none" stroke="rgb(179,179,179)" stroke-linejoin="round" d="M 40239,13444 L 40239,13294"/>
 <path fill="none" stroke="rgb(179,179,179)" stroke-linejoin="round" d="M 43610,13444 L 43610,13294"/>
 <path fill="none" stroke="rgb(179,179,179)" stroke-linejoin="round" d="M 43610,13444 L 43610,13294"/>
 <path fill="none" stroke="rgb(179,179,179)" stroke-linejoin="round" d="M 46980,13444 L 46980,13294"/>
 <path fill="none" stroke="rgb(179,179,179)" stroke-linejoin="round" d="M 46980,13444 L 46980,13294"/>
 <path fill="none" stroke="rgb(179,179,179)" stroke-linejoin="round" d="M 50351,13444 L 50351,13294"/>
 <path fill="none" stroke="rgb(179,179,179)" stroke-linejoin="round" d="M 50351,13444 L 50351,13294"/>
 <path fill="none" stroke="rgb(179,179,179)" stroke-linejoin="round" d="M 53722,13444 L 53722,13294"/>
 <path fill="none" stroke="rgb(179,179,179)" stroke-linejoin="round" d="M 53722,13444 L 53722,13294"/>
 <path fill="none" stroke="rgb(179,179,179)" stroke-linejoin="round" d="M 57092,13444 L 57092,13294"/>
 <path fill="none" stroke="rgb(179,179,179)" stroke-linejoin="round" d="M 57092,13444 L 57092,13294"/>
 <path fill="none" stroke="rgb(179,179,179)" stroke-linejoin="round" d="M 3163,13294 L 57092,13294"/>
 <path fill="none" stroke="rgb(179,179,179)" stroke-linejoin="round" d="M 3013,13294 L 3163,13294"/>
 <path fill="none" stroke="rgb(179,179,179)" stroke-linejoin="round" d="M 3013,13294 L 3163,13294"/>
 <path fill="none" stroke="rgb(179,179,179)" stroke-linejoin="round" d="M 3013,11527 L 3163,11527"/>
 <path fill="none" stroke="rgb(179,179,179)" stroke-linejoin="round" d="M 3013,11527 L 3163,11527"/>
 <path fill="none" stroke="rgb(179,179,179)" stroke-linejoin="round" d="M 3013,9761 L 3163,9761"/>
 <path fill="none" stroke="rgb(179,179,179)" stroke-linejoin="round" d="M 3013,9761 L 3163,9761"/>
 <path fill="none" stroke="rgb(179,179,179)" stroke-linejoin="round" d="M 3013,7994 L 3163,7994"/>
 <path fill="none" stroke="rgb(179,179,179)" stroke-linejoin="round" d="M 3013,7994 L 3163,7994"/>
 <path fill="none" stroke="rgb(179,179,179)" stroke-linejoin="round" d="M 3013,6228 L 3163,6228"/>
 <path fill="none" stroke="rgb(179,179,179)" stroke-linejoin="round" d="M 3013,6228 L 3163,6228"/>
 <path fill="none" stroke="rgb(179,179,179)" stroke-linejoin="round" d="M 3013,4462 L 3163,4462"/>
 <path fill="none" stroke="rgb(179,179,179)" stroke-linejoin="round" d="M 3013,4462 L 3163,4462"/>
 <path fill="none" stroke="rgb(179,179,179)" stroke-linejoin="round" d="M 3013,2695 L 3163,2695"/>
 <path fill="none" stroke="rgb(179,179,179)" stroke-linejoin="round" d="M 3013,2695 L 3163,2695"/>
 <path fill="none" stroke="rgb(179,179,179)" stroke-linejoin="round" d="M 3163,13294 L 3163,2695"/>
 <path fill="rgb(0,69,134)" stroke="none" d="M 3331,13294 L 3668,13294 3668,11564 3331,11564 3331,13294 Z"/>
 <path fill="rgb(0,69,134)" stroke="none" d="M 6702,13294 L 7039,13294 7039,11808 6702,11808 6702,13294 Z"/>
 <path fill="rgb(0,69,134)" stroke="none" d="M 10072,13294 L 10409,13294 10409,12023 10072,12023 10072,13294 Z"/>
 <path fill="rgb(0,69,134)" stroke="none" d="M 13443,13294 L 13780,13294 13780,11974 13443,11974 13443,13294 Z"/>
 <path fill="rgb(0,69,134)" stroke="none" d="M 16814,13294 L 17151,13294 17151,11296 16814,11296 16814,13294 Z"/>
 <path fill="rgb(0,69,134)" stroke="none" d="M 20184,13294 L 20522,13294 20522,11717 20184,11717 20184,13294 Z"/>
 <path fill="rgb(0,69,134)" stroke="none" d="M 23555,13294 L 23892,13294 23892,11210 23555,11210 23555,13294 Z"/>
 <path fill="rgb(0,69,134)" stroke="none" d="M 26926,13294 L 27263,13294 27263,11154 26926,11154 26926,13294 Z"/>
 <path fill="rgb(0,69,134)" stroke="none" d="M 30297,13294 L 30634,13294 30634,11145 30297,11145 30297,13294 Z"/>
 <path fill="rgb(0,69,134)" stroke="none" d="M 33666,13294 L 34003,13294 34003,11203 33666,11203 33666,13294 Z"/>
 <path fill="rgb(0,69,134)" stroke="none" d="M 37037,13294 L 37374,13294 37374,9790 37037,9790 37037,13294 Z"/>
 <path fill="rgb(0,69,134)" stroke="none" d="M 40408,13294 L 40745,13294 40745,12050 40408,12050 40408,13294 Z"/>
 <path fill="rgb(0,69,134)" stroke="none" d="M 43778,13294 L 44115,13294 44115,11564 43778,11564 43778,13294 Z"/>
 <path fill="rgb(0,69,134)" stroke="none" d="M 47149,13294 L 47486,13294 47486,11971 47149,11971 47149,13294 Z"/>
 <path fill="rgb(0,69,134)" stroke="none" d="M 50520,13294 L 50857,13294 50857,11678 50520,11678 50520,13294 Z"/>
 <path fill="rgb(0,69,134)" stroke="none" d="M 53890,13294 L 54227,13294 54227,12050 53890,12050 53890,13294 Z"/>
 <path fill="rgb(255,66,14)" stroke="none" d="M 3668,13294 L 4005,13294 4005,13294 3668,13294 Z"/>
 <path fill="rgb(255,66,14)" stroke="none" d="M 7039,13294 L 7376,13294 7376,11762 7039,11762 7039,13294 Z"/>
 <path fill="rgb(255,66,14)" stroke="none" d="M 10409,13294 L 10747,13294 10747,11854 10409,11854 10409,13294 Z"/>
 <path fill="rgb(255,66,14)" stroke="none" d="M 13780,13294 L 14117,13294 14117,11771 13780,11771 13780,13294 Z"/>
 <path fill="rgb(255,66,14)" stroke="none" d="M 17151,13294 L 17488,13294 17488,11783 17151,11783 17151,13294 Z"/>
 <path fill="rgb(255,66,14)" stroke="none" d="M 20522,13294 L 20859,13294 20859,11746 20522,11746 20522,13294 Z"/>
 <path fill="rgb(255,66,14)" stroke="none" d="M 23892,13294 L 24229,13294 24229,11259 23892,11259 23892,13294 Z"/>
 <path fill="rgb(255,66,14)" stroke="none" d="M 27263,13294 L 27600,13294 27600,12006 27263,12006 27263,13294 Z"/>
 <path fill="rgb(255,66,14)" stroke="none" d="M 30634,13294 L 30971,13294 30971,11819 30634,11819 30634,13294 Z"/>
 <path fill="rgb(255,66,14)" stroke="none" d="M 34003,13294 L 34340,13294 34340,11957 34003,11957 34003,13294 Z"/>
 <path fill="rgb(255,66,14)" stroke="none" d="M 37374,13294 L 37711,13294 37711,11212 37374,11212 37374,13294 Z"/>
 <path fill="rgb(255,66,14)" stroke="none" d="M 40745,13294 L 41082,13294 41082,11564 40745,11564 40745,13294 Z"/>
 <path fill="rgb(255,66,14)" stroke="none" d="M 44115,13294 L 44452,13294 44452,12050 44115,12050 44115,13294 Z"/>
 <path fill="rgb(255,66,14)" stroke="none" d="M 47486,13294 L 47823,13294 47823,12386 47486,12386 47486,13294 Z"/>
 <path fill="rgb(255,66,14)" stroke="none" d="M 50857,13294 L 51194,13294 51194,12386 50857,12386 50857,13294 Z"/>
 <path fill="rgb(255,66,14)" stroke="none" d="M 54227,13294 L 54564,13294 54564,10213 54227,10213 54227,13294 Z"/>
 <path fill="rgb(255,211,32)" stroke="none" d="M 4005,13294 L 4342,13294 4342,9562 4005,9562 4005,13294 Z"/>
 <path fill="rgb(255,211,32)" stroke="none" d="M 7376,13294 L 7713,13294 7713,9394 7376,9394 7376,13294 Z"/>
 <path fill="rgb(255,211,32)" stroke="none" d="M 10747,13294 L 11084,13294 11084,9246 10747,9246 10747,13294 Z"/>
 <path fill="rgb(255,211,32)" stroke="none" d="M 14117,13294 L 14454,13294 14454,9413 14117,9413 14117,13294 Z"/>
 <path fill="rgb(255,211,32)" stroke="none" d="M 17488,13294 L 17825,13294 17825,9548 17488,9548 17488,13294 Z"/>
 <path fill="rgb(255,211,32)" stroke="none" d="M 20859,13294 L 21196,13294 21196,9166 20859,9166 20859,13294 Z"/>
 <path fill="rgb(255,211,32)" stroke="none" d="M 24229,13294 L 24566,13294 24566,10165 24229,10165 24229,13294 Z"/>
 <path fill="rgb(255,211,32)" stroke="none" d="M 27600,13294 L 27937,13294 27937,9150 27600,9150 27600,13294 Z"/>
 <path fill="rgb(255,211,32)" stroke="none" d="M 30971,13294 L 31308,13294 31308,9363 30971,9363 30971,13294 Z"/>
 <path fill="rgb(255,211,32)" stroke="none" d="M 34340,13294 L 34677,13294 34677,9284 34340,9284 34340,13294 Z"/>
 <path fill="rgb(255,211,32)" stroke="none" d="M 37711,13294 L 38048,13294 38048,9480 37711,9480 37711,13294 Z"/>
 <path fill="rgb(255,211,32)" stroke="none" d="M 41082,13294 L 41419,13294 41419,9987 41082,9987 41082,13294 Z"/>
 <path fill="rgb(255,211,32)" stroke="none" d="M 44452,13294 L 44789,13294 44789,9308 44452,9308 44452,13294 Z"/>
 <path fill="rgb(255,211,32)" stroke="none" d="M 47823,13294 L 48160,13294 48160,9967 47823,9967 47823,13294 Z"/>
 <path fill="rgb(255,211,32)" stroke="none" d="M 51194,13294 L 51531,13294 51531,9831 51194,9831 51194,13294 Z"/>
 <path fill="rgb(255,211,32)" stroke="none" d="M 54564,13294 L 54902,13294 54902,8786 54564,8786 54564,13294 Z"/>
 <path fill="rgb(87,157,28)" stroke="none" d="M 4342,13294 L 4679,13294 4679,10476 4342,10476 4342,13294 Z"/>
 <path fill="rgb(87,157,28)" stroke="none" d="M 7713,13294 L 8050,13294 8050,8634 7713,8634 7713,13294 Z"/>
 <path fill="rgb(87,157,28)" stroke="none" d="M 11084,13294 L 11421,13294 11421,8827 11084,8827 11084,13294 Z"/>
 <path fill="rgb(87,157,28)" stroke="none" d="M 14454,13294 L 14791,13294 14791,8656 14454,8656 14454,13294 Z"/>
 <path fill="rgb(87,157,28)" stroke="none" d="M 17825,13294 L 18162,13294 18162,10817 17825,10817 17825,13294 Z"/>
 <path fill="rgb(87,157,28)" stroke="none" d="M 21196,13294 L 21533,13294 21533,10746 21196,10746 21196,13294 Z"/>
 <path fill="rgb(87,157,28)" stroke="none" d="M 24566,13294 L 24903,13294 24903,10978 24566,10978 24566,13294 Z"/>
 <path fill="rgb(87,157,28)" stroke="none" d="M 27937,13294 L 28274,13294 28274,10440 27937,10440 27937,13294 Z"/>
 <path fill="rgb(87,157,28)" stroke="none" d="M 31308,13294 L 31644,13294 31644,10460 31308,10460 31308,13294 Z"/>
 <path fill="rgb(87,157,28)" stroke="none" d="M 34677,13294 L 35014,13294 35014,10234 34677,10234 34677,13294 Z"/>
 <path fill="rgb(87,157,28)" stroke="none" d="M 38048,13294 L 38385,13294 38385,10147 38048,10147 38048,13294 Z"/>
 <path fill="rgb(87,157,28)" stroke="none" d="M 41419,13294 L 41756,13294 41756,10550 41419,10550 41419,13294 Z"/>
 <path fill="rgb(87,157,28)" stroke="none" d="M 44789,13294 L 45127,13294 45127,10333 44789,10333 44789,13294 Z"/>
 <path fill="rgb(87,157,28)" stroke="none" d="M 48160,13294 L 48497,13294 48497,11157 48160,11157 48160,13294 Z"/>
 <path fill="rgb(87,157,28)" stroke="none" d="M 51531,13294 L 51868,13294 51868,11236 51531,11236 51531,13294 Z"/>
 <path fill="rgb(87,157,28)" stroke="none" d="M 54902,13294 L 55239,13294 55239,7872 54902,7872 54902,13294 Z"/>
 <path fill="rgb(126,0,33)" stroke="none" d="M 4679,13294 L 5016,13294 5016,3763 4679,3763 4679,13294 Z"/>
 <path fill="rgb(126,0,33)" stroke="none" d="M 8050,13294 L 8387,13294 8387,4431 8050,4431 8050,13294 Z"/>
 <path fill="rgb(126,0,33)" stroke="none" d="M 11421,13294 L 11758,13294 11758,4641 11421,4641 11421,13294 Z"/>
 <path fill="rgb(126,0,33)" stroke="none" d="M 14791,13294 L 15128,13294 15128,4965 14791,4965 14791,13294 Z"/>
 <path fill="rgb(126,0,33)" stroke="none" d="M 18162,13294 L 18499,13294 18499,5560 18162,5560 18162,13294 Z"/>
 <path fill="rgb(126,0,33)" stroke="none" d="M 21533,13294 L 21870,13294 21870,6080 21533,6080 21533,13294 Z"/>
 <path fill="rgb(126,0,33)" stroke="none" d="M 24903,13294 L 25241,13294 25241,4953 24903,4953 24903,13294 Z"/>
 <path fill="rgb(126,0,33)" stroke="none" d="M 28274,13294 L 28611,13294 28611,4797 28274,4797 28274,13294 Z"/>
 <path fill="rgb(126,0,33)" stroke="none" d="M 31644,13294 L 31981,13294 31981,5022 31644,5022 31644,13294 Z"/>
 <path fill="rgb(126,0,33)" stroke="none" d="M 35014,13294 L 35352,13294 35352,4841 35014,4841 35014,13294 Z"/>
 <path fill="rgb(126,0,33)" stroke="none" d="M 38385,13294 L 38722,13294 38722,5020 38385,5020 38385,13294 Z"/>
 <path fill="rgb(126,0,33)" stroke="none" d="M 41756,13294 L 42093,13294 42093,3709 41756,3709 41756,13294 Z"/>
 <path fill="rgb(126,0,33)" stroke="none" d="M 45127,13294 L 45464,13294 45464,3392 45127,3392 45127,13294 Z"/>
 <path fill="rgb(126,0,33)" stroke="none" d="M 48497,13294 L 48834,13294 48834,6275 48497,6275 48497,13294 Z"/>
 <path fill="rgb(126,0,33)" stroke="none" d="M 51868,13294 L 52205,13294 52205,6058 51868,6058 51868,13294 Z"/>
 <path fill="rgb(126,0,33)" stroke="none" d="M 55239,13294 L 55576,13294 55576,4015 55239,4015 55239,13294 Z"/>
 <path fill="rgb(131,202,255)" stroke="none" d="M 5016,13294 L 5353,13294 5353,8423 5016,8423 5016,13294 Z"/>
 <path fill="rgb(131,202,255)" stroke="none" d="M 8387,13294 L 8724,13294 8724,10128 8387,10128 8387,13294 Z"/>
 <path fill="rgb(131,202,255)" stroke="none" d="M 11758,13294 L 12095,13294 12095,9625 11758,9625 11758,13294 Z"/>
 <path fill="rgb(131,202,255)" stroke="none" d="M 15128,13294 L 15466,13294 15466,10038 15128,10038 15128,13294 Z"/>
 <path fill="rgb(131,202,255)" stroke="none" d="M 18499,13294 L 18836,13294 18836,9859 18499,9859 18499,13294 Z"/>
 <path fill="rgb(131,202,255)" stroke="none" d="M 21870,13294 L 22207,13294 22207,9950 21870,9950 21870,13294 Z"/>
 <path fill="rgb(131,202,255)" stroke="none" d="M 25241,13294 L 25578,13294 25578,9423 25241,9423 25241,13294 Z"/>
 <path fill="rgb(131,202,255)" stroke="none" d="M 28611,13294 L 28948,13294 28948,9270 28611,9270 28611,13294 Z"/>
 <path fill="rgb(131,202,255)" stroke="none" d="M 31981,13294 L 32318,13294 32318,9122 31981,9122 31981,13294 Z"/>
 <path fill="rgb(131,202,255)" stroke="none" d="M 35352,13294 L 35689,13294 35689,9009 35352,9009 35352,13294 Z"/>
 <path fill="rgb(131,202,255)" stroke="none" d="M 38722,13294 L 39059,13294 39059,8651 38722,8651 38722,13294 Z"/>
 <path fill="rgb(131,202,255)" stroke="none" d="M 42093,13294 L 42430,13294 42430,7872 42093,7872 42093,13294 Z"/>
 <path fill="rgb(131,202,255)" stroke="none" d="M 45464,13294 L 45801,13294 45801,8741 45464,8741 45464,13294 Z"/>
 <path fill="rgb(131,202,255)" stroke="none" d="M 48834,13294 L 49171,13294 49171,9687 48834,9687 48834,13294 Z"/>
 <path fill="rgb(131,202,255)" stroke="none" d="M 52205,13294 L 52542,13294 52542,9528 52205,9528 52205,13294 Z"/>
 <path fill="rgb(131,202,255)" stroke="none" d="M 55576,13294 L 55913,13294 55913,8308 55576,8308 55576,13294 Z"/>
 <path fill="rgb(49,64,4)" stroke="none" d="M 5353,13294 L 5691,13294 5691,9562 5353,9562 5353,13294 Z"/>
 <path fill="rgb(49,64,4)" stroke="none" d="M 8724,13294 L 9061,13294 9061,11580 8724,11580 8724,13294 Z"/>
 <path fill="rgb(49,64,4)" stroke="none" d="M 12095,13294 L 12432,13294 12432,11880 12095,11880 12095,13294 Z"/>
 <path fill="rgb(49,64,4)" stroke="none" d="M 15466,13294 L 15803,13294 15803,11848 15466,11848 15466,13294 Z"/>
 <path fill="rgb(49,64,4)" stroke="none" d="M 18836,13294 L 19173,13294 19173,10542 18836,10542 18836,13294 Z"/>
 <path fill="rgb(49,64,4)" stroke="none" d="M 22207,13294 L 22544,13294 22544,11307 22207,11307 22207,13294 Z"/>
 <path fill="rgb(49,64,4)" stroke="none" d="M 25578,13294 L 25915,13294 25915,10690 25578,10690 25578,13294 Z"/>
 <path fill="rgb(49,64,4)" stroke="none" d="M 28948,13294 L 29285,13294 29285,10945 28948,10945 28948,13294 Z"/>
 <path fill="rgb(49,64,4)" stroke="none" d="M 32318,13294 L 32655,13294 32655,11049 32318,11049 32318,13294 Z"/>
 <path fill="rgb(49,64,4)" stroke="none" d="M 35689,13294 L 36026,13294 36026,11271 35689,11271 35689,13294 Z"/>
 <path fill="rgb(49,64,4)" stroke="none" d="M 39059,13294 L 39396,13294 39396,9790 39059,9790 39059,13294 Z"/>
 <path fill="rgb(49,64,4)" stroke="none" d="M 42430,13294 L 42767,13294 42767,11212 42430,11212 42430,13294 Z"/>
 <path fill="rgb(49,64,4)" stroke="none" d="M 45801,13294 L 46138,13294 46138,10806 45801,10806 45801,13294 Z"/>
 <path fill="rgb(49,64,4)" stroke="none" d="M 49171,13294 L 49508,13294 49508,11666 49171,11666 49171,13294 Z"/>
 <path fill="rgb(49,64,4)" stroke="none" d="M 52542,13294 L 52879,13294 52879,11535 52542,11535 52542,13294 Z"/>
 <path fill="rgb(49,64,4)" stroke="none" d="M 55913,13294 L 56250,13294 56250,9926 55913,9926 55913,13294 Z"/>
 <path fill="rgb(174,207,0)" stroke="none" d="M 5691,13294 L 6028,13294 6028,10705 5691,10705 5691,13294 Z"/>
 <path fill="rgb(174,207,0)" stroke="none" d="M 9061,13294 L 9398,13294 9398,11697 9061,11697 9061,13294 Z"/>
 <path fill="rgb(174,207,0)" stroke="none" d="M 12432,13294 L 12769,13294 12769,11565 12432,11565 12432,13294 Z"/>
 <path fill="rgb(174,207,0)" stroke="none" d="M 15803,13294 L 16140,13294 16140,11551 15803,11551 15803,13294 Z"/>
 <path fill="rgb(174,207,0)" stroke="none" d="M 19173,13294 L 19510,13294 19510,11892 19173,11892 19173,13294 Z"/>
 <path fill="rgb(174,207,0)" stroke="none" d="M 22544,13294 L 22881,13294 22881,11902 22544,11902 22544,13294 Z"/>
 <path fill="rgb(174,207,0)" stroke="none" d="M 25915,13294 L 26252,13294 26252,11842 25915,11842 25915,13294 Z"/>
 <path fill="rgb(174,207,0)" stroke="none" d="M 29285,13294 L 29622,13294 29622,12125 29285,12125 29285,13294 Z"/>
 <path fill="rgb(174,207,0)" stroke="none" d="M 32655,13294 L 32992,13294 32992,12114 32655,12114 32655,13294 Z"/>
 <path fill="rgb(174,207,0)" stroke="none" d="M 36026,13294 L 36363,13294 36363,11809 36026,11809 36026,13294 Z"/>
 <path fill="rgb(174,207,0)" stroke="none" d="M 39396,13294 L 39733,13294 39733,10003 39396,10003 39396,13294 Z"/>
 <path fill="rgb(174,207,0)" stroke="none" d="M 42767,13294 L 43104,13294 43104,9790 42767,9790 42767,13294 Z"/>
 <path fill="rgb(174,207,0)" stroke="none" d="M 46138,13294 L 46475,13294 46475,10230 46138,10230 46138,13294 Z"/>
 <path fill="rgb(174,207,0)" stroke="none" d="M 49508,13294 L 49846,13294 49846,12467 49508,12467 49508,13294 Z"/>
 <path fill="rgb(174,207,0)" stroke="none" d="M 52879,13294 L 53216,13294 53216,12143 52879,12143 52879,13294 Z"/>
 <path fill="rgb(174,207,0)" stroke="none" d="M 56250,13294 L 56587,13294 56587,9107 56250,9107 56250,13294 Z"/>
 <path fill="rgb(75,31,111)" stroke="none" d="M 6028,13294 L 6365,13294 6365,10512 6028,10512 6028,13294 Z"/>
 <path fill="rgb(75,31,111)" stroke="none" d="M 9398,13294 L 9735,13294 9735,10307 9398,10307 9398,13294 Z"/>
 <path fill="rgb(75,31,111)" stroke="none" d="M 12769,13294 L 13106,13294 13106,10123 12769,10123 12769,13294 Z"/>
 <path fill="rgb(75,31,111)" stroke="none" d="M 16140,13294 L 16477,13294 16477,10168 16140,10168 16140,13294 Z"/>
 <path fill="rgb(75,31,111)" stroke="none" d="M 19510,13294 L 19847,13294 19847,10987 19510,10987 19510,13294 Z"/>
 <path fill="rgb(75,31,111)" stroke="none" d="M 22881,13294 L 23218,13294 23218,10683 22881,10683 22881,13294 Z"/>
 <path fill="rgb(75,31,111)" stroke="none" d="M 26252,13294 L 26589,13294 26589,11057 26252,11057 26252,13294 Z"/>
 <path fill="rgb(75,31,111)" stroke="none" d="M 29622,13294 L 29959,13294 29959,10368 29622,10368 29622,13294 Z"/>
 <path fill="rgb(75,31,111)" stroke="none" d="M 32992,13294 L 33329,13294 33329,10422 32992,10422 32992,13294 Z"/>
 <path fill="rgb(75,31,111)" stroke="none" d="M 36363,13294 L 36700,13294 36700,10378 36363,10378 36363,13294 Z"/>
 <path fill="rgb(75,31,111)" stroke="none" d="M 39733,13294 L 40071,13294 40071,9790 39733,9790 39733,13294 Z"/>
 <path fill="rgb(75,31,111)" stroke="none" d="M 43104,13294 L 43441,13294 43441,10003 43104,10003 43104,13294 Z"/>
 <path fill="rgb(75,31,111)" stroke="none" d="M 46475,13294 L 46812,13294 46812,9850 46475,9850 46475,13294 Z"/>
 <path fill="rgb(75,31,111)" stroke="none" d="M 49846,13294 L 50183,13294 50183,11581 49846,11581 49846,13294 Z"/>
 <path fill="rgb(75,31,111)" stroke="none" d="M 53216,13294 L 53553,13294 53553,11511 53216,11511 53216,13294 Z"/>
 <path fill="rgb(75,31,111)" stroke="none" d="M 56587,13294 L 56924,13294 56924,6121 56587,6121 56587,13294 Z"/>
 <text class="SVGTextShape"><tspan class="TextParagraph" font-family="Liberation Sans, sans-serif" font-size="353px" font-weight="400"><tspan class="TextPosition" x="4067" y="13862"><tspan fill="rgb(0,0,0)" stroke="none" style="white-space: pre">Reference</tspan></tspan></tspan></text>
 <text class="SVGTextShape"><tspan class="TextParagraph" font-family="Liberation Sans, sans-serif" font-size="353px" font-weight="400"><tspan class="TextPosition" x="7412" y="13862"><tspan fill="rgb(0,0,0)" stroke="none" style="white-space: pre">BME680 1</tspan></tspan></tspan></text>
 <text class="SVGTextShape"><tspan class="TextParagraph" font-family="Liberation Sans, sans-serif" font-size="353px" font-weight="400"><tspan class="TextPosition" x="10782" y="13862"><tspan fill="rgb(0,0,0)" stroke="none" style="white-space: pre">BME680 2</tspan></tspan></tspan></text>
 <text class="SVGTextShape"><tspan class="TextParagraph" font-family="Liberation Sans, sans-serif" font-size="353px" font-weight="400"><tspan class="TextPosition" x="14153" y="13862"><tspan fill="rgb(0,0,0)" stroke="none" style="white-space: pre">BME680 3</tspan></tspan></tspan></text>
 <text class="SVGTextShape"><tspan class="TextParagraph" font-family="Liberation Sans, sans-serif" font-size="353px" font-weight="400"><tspan class="TextPosition" x="17656" y="13862"><tspan fill="rgb(0,0,0)" stroke="none" style="white-space: pre">SHT31 1</tspan></tspan></tspan></text>
 <text class="SVGTextShape"><tspan class="TextParagraph" font-family="Liberation Sans, sans-serif" font-size="353px" font-weight="400"><tspan class="TextPosition" x="21026" y="13862"><tspan fill="rgb(0,0,0)" stroke="none" style="white-space: pre">SHT31 2</tspan></tspan></tspan></text>
 <text class="SVGTextShape"><tspan class="TextParagraph" font-family="Liberation Sans, sans-serif" font-size="353px" font-weight="400"><tspan class="TextPosition" x="24397" y="13862"><tspan fill="rgb(0,0,0)" stroke="none" style="white-space: pre">SHT31 3</tspan></tspan></tspan></text>
 <text class="SVGTextShape"><tspan class="TextParagraph" font-family="Liberation Sans, sans-serif" font-size="353px" font-weight="400"><tspan class="TextPosition" x="27715" y="13862"><tspan fill="rgb(0,0,0)" stroke="none" style="white-space: pre">SHT40 1 </tspan></tspan></tspan></text>
 <text class="SVGTextShape"><tspan class="TextParagraph" font-family="Liberation Sans, sans-serif" font-size="353px" font-weight="400"><tspan class="TextPosition" x="31138" y="13862"><tspan fill="rgb(0,0,0)" stroke="none" style="white-space: pre">SHT40 2</tspan></tspan></tspan></text>
 <text class="SVGTextShape"><tspan class="TextParagraph" font-family="Liberation Sans, sans-serif" font-size="353px" font-weight="400"><tspan class="TextPosition" x="34509" y="13862"><tspan fill="rgb(0,0,0)" stroke="none" style="white-space: pre">SHT40 3</tspan></tspan></tspan></text>
 <text class="SVGTextShape"><tspan class="TextParagraph" font-family="Liberation Sans, sans-serif" font-size="353px" font-weight="400"><tspan class="TextPosition" x="37880" y="13862"><tspan fill="rgb(0,0,0)" stroke="none" style="white-space: pre">DHT22 1</tspan></tspan></tspan></text>
 <text class="SVGTextShape"><tspan class="TextParagraph" font-family="Liberation Sans, sans-serif" font-size="353px" font-weight="400"><tspan class="TextPosition" x="41250" y="13862"><tspan fill="rgb(0,0,0)" stroke="none" style="white-space: pre">DHT22 2</tspan></tspan></tspan></text>
 <text class="SVGTextShape"><tspan class="TextParagraph" font-family="Liberation Sans, sans-serif" font-size="353px" font-weight="400"><tspan class="TextPosition" x="44621" y="13862"><tspan fill="rgb(0,0,0)" stroke="none" style="white-space: pre">DHT22 3</tspan></tspan></tspan></text>
 <text class="SVGTextShape"><tspan class="TextParagraph" font-family="Liberation Sans, sans-serif" font-size="353px" font-weight="400"><tspan class="TextPosition" x="47860" y="13862"><tspan fill="rgb(0,0,0)" stroke="none" style="white-space: pre">BME280 1</tspan></tspan></tspan></text>
 <text class="SVGTextShape"><tspan class="TextParagraph" font-family="Liberation Sans, sans-serif" font-size="353px" font-weight="400"><tspan class="TextPosition" x="51230" y="13862"><tspan fill="rgb(0,0,0)" stroke="none" style="white-space: pre">BME280 2</tspan></tspan></tspan></text>
 <text class="SVGTextShape"><tspan class="TextParagraph" font-family="Liberation Sans, sans-serif" font-size="353px" font-weight="400"><tspan class="TextPosition" x="54640" y="13862"><tspan fill="rgb(0,0,0)" stroke="none" style="white-space: pre">Testo 174</tspan></tspan></tspan></text>
 <text class="SVGTextShape"><tspan class="TextParagraph" font-family="Liberation Sans, sans-serif" font-size="353px" font-weight="400"><tspan class="TextPosition" x="2252" y="13415"><tspan fill="rgb(0,0,0)" stroke="none" style="white-space: pre">0.00</tspan></tspan></tspan></text>
 <text class="SVGTextShape"><tspan class="TextParagraph" font-family="Liberation Sans, sans-serif" font-size="353px" font-weight="400"><tspan class="TextPosition" x="2252" y="11648"><tspan fill="rgb(0,0,0)" stroke="none" style="white-space: pre">0.05</tspan></tspan></tspan></text>
 <text class="SVGTextShape"><tspan class="TextParagraph" font-family="Liberation Sans, sans-serif" font-size="353px" font-weight="400"><tspan class="TextPosition" x="2252" y="9882"><tspan fill="rgb(0,0,0)" stroke="none" style="white-space: pre">0.10</tspan></tspan></tspan></text>
 <text class="SVGTextShape"><tspan class="TextParagraph" font-family="Liberation Sans, sans-serif" font-size="353px" font-weight="400"><tspan class="TextPosition" x="2252" y="8115"><tspan fill="rgb(0,0,0)" stroke="none" style="white-space: pre">0.15</tspan></tspan></tspan></text>
 <text class="SVGTextShape"><tspan class="TextParagraph" font-family="Liberation Sans, sans-serif" font-size="353px" font-weight="400"><tspan class="TextPosition" x="2252" y="6348"><tspan fill="rgb(0,0,0)" stroke="none" style="white-space: pre">0.20</tspan></tspan></tspan></text>
 <text class="SVGTextShape"><tspan class="TextParagraph" font-family="Liberation Sans, sans-serif" font-size="353px" font-weight="400"><tspan class="TextPosition" x="2252" y="4582"><tspan fill="rgb(0,0,0)" stroke="none" style="white-space: pre">0.25</tspan></tspan></tspan></text>
 <text class="SVGTextShape"><tspan class="TextParagraph" font-family="Liberation Sans, sans-serif" font-size="353px" font-weight="400"><tspan class="TextPosition" x="2252" y="2815"><tspan fill="rgb(0,0,0)" stroke="none" style="white-space: pre">0.30</tspan></tspan></tspan></text>
 <text class="SVGTextShape"><tspan class="TextParagraph" font-family="Liberation Sans, sans-serif" font-size="459px" font-weight="400"><tspan class="TextPosition" x="28234" y="962"><tspan fill="rgb(0,0,0)" stroke="none" style="white-space: pre">erweiterte Standardabweichung</tspan></tspan></tspan></text>
 <text class="SVGTextShape"><tspan class="TextParagraph" font-family="Liberation Sans, sans-serif" font-size="388px" font-weight="400"><tspan class="TextPosition" x="27123" y="1996"><tspan fill="rgb(0,0,0)" stroke="none" style="white-space: pre">Aufteilung nach Kalbrierpunkten im Klimaschrank</tspan></tspan></tspan></text>
 <path fill="rgb(0,69,134)" stroke="none" d="M 58229,5218 L 58123,5218 58123,5007 58334,5007 58334,5218 58229,5218 Z"/>
 <path fill="rgb(255,66,14)" stroke="none" d="M 58229,5974 L 58123,5974 58123,5763 58334,5763 58334,5974 58229,5974 Z"/>
 <path fill="rgb(255,211,32)" stroke="none" d="M 58229,6730 L 58123,6730 58123,6519 58334,6519 58334,6730 58229,6730 Z"/>
 <path fill="rgb(87,157,28)" stroke="none" d="M 58229,7486 L 58123,7486 58123,7275 58334,7275 58334,7486 58229,7486 Z"/>
 <path fill="rgb(126,0,33)" stroke="none" d="M 58229,8241 L 58123,8241 58123,8030 58334,8030 58334,8241 58229,8241 Z"/>
 <path fill="rgb(131,202,255)" stroke="none" d="M 58229,8997 L 58123,8997 58123,8786 58334,8786 58334,8997 58229,8997 Z"/>
 <path fill="rgb(49,64,4)" stroke="none" d="M 58229,9753 L 58123,9753 58123,9542 58334,9542 58334,9753 58229,9753 Z"/>
 <path fill="rgb(174,207,0)" stroke="none" d="M 58229,10509 L 58123,10509 58123,10298 58334,10298 58334,10509 58229,10509 Z"/>
 <path fill="rgb(75,31,111)" stroke="none" d="M 58229,11265 L 58123,11265 58123,11054 58334,11054 58334,11265 58229,11265 Z"/>
 <text class="SVGTextShape"><tspan class="TextParagraph" font-family="Liberation Sans, sans-serif" font-size="353px" font-weight="400"><tspan class="TextPosition" x="58434" y="5232"><tspan fill="rgb(0,0,0)" stroke="none" style="white-space: pre">30 % rel. Luftf. Upw.</tspan></tspan></tspan></text>
 <text class="SVGTextShape"><tspan class="TextParagraph" font-family="Liberation Sans, sans-serif" font-size="353px" font-weight="400"><tspan class="TextPosition" x="58434" y="5988"><tspan fill="rgb(0,0,0)" stroke="none" style="white-space: pre">45 % rel. Luftf. Upw.</tspan></tspan></tspan></text>
 <text class="SVGTextShape"><tspan class="TextParagraph" font-family="Liberation Sans, sans-serif" font-size="353px" font-weight="400"><tspan class="TextPosition" x="58434" y="6744"><tspan fill="rgb(0,0,0)" stroke="none" style="white-space: pre">60 % rel. Luftf. Upw.</tspan></tspan></tspan></text>
 <text class="SVGTextShape"><tspan class="TextParagraph" font-family="Liberation Sans, sans-serif" font-size="353px" font-weight="400"><tspan class="TextPosition" x="58434" y="7500"><tspan fill="rgb(0,0,0)" stroke="none" style="white-space: pre">75 % rel. Luftf. Upw.</tspan></tspan></tspan></text>
 <text class="SVGTextShape"><tspan class="TextParagraph" font-family="Liberation Sans, sans-serif" font-size="353px" font-weight="400"><tspan class="TextPosition" x="58434" y="8255"><tspan fill="rgb(0,0,0)" stroke="none" style="white-space: pre">90 % rel. Luftf.</tspan></tspan></tspan></text>
 <text class="SVGTextShape"><tspan class="TextParagraph" font-family="Liberation Sans, sans-serif" font-size="353px" font-weight="400"><tspan class="TextPosition" x="58434" y="9011"><tspan fill="rgb(0,0,0)" stroke="none" style="white-space: pre">75 % rel. Luftf. Downw.</tspan></tspan></tspan></text>
 <text class="SVGTextShape"><tspan class="TextParagraph" font-family="Liberation Sans, sans-serif" font-size="353px" font-weight="400"><tspan class="TextPosition" x="58434" y="9767"><tspan fill="rgb(0,0,0)" stroke="none" style="white-space: pre">60 % rel. Luftf. Downw.</tspan></tspan></tspan></text>
 <text class="SVGTextShape"><tspan class="TextParagraph" font-family="Liberation Sans, sans-serif" font-size="353px" font-weight="400"><tspan class="TextPosition" x="58434" y="10523"><tspan fill="rgb(0,0,0)" stroke="none" style="white-space: pre">45 % rel. Luftf. Downw.</tspan></tspan></tspan></text>
 <text class="SVGTextShape"><tspan class="TextParagraph" font-family="Liberation Sans, sans-serif" font-size="353px" font-weight="400"><tspan class="TextPosition" x="58434" y="11279"><tspan fill="rgb(0,0,0)" stroke="none" style="white-space: pre">30 % rel. Luftf. Downw.</tspan></tspan></tspan></text>
 <text class="SVGTextShape"><tspan class="TextParagraph" font-family="Liberation Sans, sans-serif" font-size="318px" font-weight="400"><tspan class="TextPosition" x="28971" y="14633"><tspan fill="rgb(0,0,0)" stroke="none" style="white-space: pre">Sensoren</tspan></tspan></tspan></text>
 <text class="SVGTextShape" transform="rotate(-90 824 10521)"><tspan class="TextParagraph" font-family="Liberation Sans, sans-serif" font-size="318px" font-weight="400"><tspan class="TextPosition" x="824" y="10521"><tspan fill="rgb(0,0,0)" stroke="none" style="white-space: pre">erweiterte Standardabweichung</tspan></tspan></tspan></text>
</svg>